<svg width="25" height="22" viewBox="0 0 25 22" fill="none" xmlns="http://www.w3.org/2000/svg">
<path d="M21.2148 15.1416L15.1895 20.8496H13.5967V19.4326L19.7451 13.7041L21.2148 15.1416ZM2.18262 0.5H21.8271C22.7854 0.5 23.5097 1.22386 23.5098 2.0332V9.22852C23.1513 9.01094 22.7577 8.85579 22.3271 8.78906V3.56641H1.68262V18.7998H10.4141V19.833H2.18262C1.22434 19.833 0.5 19.1092 0.5 18.2998V2.0332C0.500078 1.22389 1.22439 0.500055 2.18262 0.5ZM21.8438 11.7852C21.846 11.7865 21.8515 11.7909 21.8623 11.7998C21.8773 11.8122 21.8937 11.8274 21.9229 11.8545L23.3369 13.1709C23.3372 13.1714 23.3387 13.1728 23.3398 13.1758C23.3432 13.1844 23.3467 13.1991 23.3467 13.2168C23.3467 13.2342 23.3431 13.2482 23.3398 13.2568C23.3383 13.2609 23.3368 13.2629 23.3369 13.2627L22.5908 13.9561L21.0332 12.5049L21.7314 11.8545C21.7606 11.8274 21.777 11.8122 21.792 11.7998C21.8026 11.7911 21.8081 11.7866 21.8105 11.7852H21.8438Z" fill="#1E3240" stroke="#1E3240"/>
</svg>
