<svg width="24" height="22" viewBox="0 0 24 22" fill="none" xmlns="http://www.w3.org/2000/svg">
<path d="M7.20312 0.5C7.78402 0.500006 8.34843 0.544331 8.75488 0.625977C8.91185 0.657519 9.02615 0.69434 9.10352 0.724609V3.21387H13.6055C13.7277 3.21387 13.7865 3.24037 13.8105 3.25488C13.8353 3.26983 13.853 3.29001 13.8682 3.31738C13.885 3.34776 13.8956 3.38367 13.9014 3.41504C13.9041 3.42971 13.9058 3.44119 13.9062 3.44629V17.9043C13.9058 17.9095 13.904 17.9202 13.9014 17.9346C13.8956 17.966 13.885 18.0018 13.8682 18.0322C13.853 18.0597 13.8353 18.0797 13.8105 18.0947C13.7865 18.1092 13.7277 18.1357 13.6055 18.1357H9.10352V20.625C9.02615 20.6553 8.91194 20.6921 8.75488 20.7236C8.34843 20.8053 7.78406 20.8496 7.20312 20.8496C6.62205 20.8496 6.05689 20.8053 5.65039 20.7236C5.49316 20.692 5.37904 20.6553 5.30176 20.625V18.1357H0.800781C0.678508 18.1357 0.619781 18.1092 0.595703 18.0947C0.570879 18.0797 0.553314 18.0597 0.538086 18.0322C0.521239 18.0018 0.509701 17.966 0.503906 17.9346C0.501281 17.9203 0.500419 17.9095 0.5 17.9043V3.44629C0.500403 3.44119 0.501203 3.42971 0.503906 3.41504C0.509707 3.38364 0.521266 3.3478 0.538086 3.31738C0.553291 3.29004 0.570937 3.26981 0.595703 3.25488C0.619848 3.24035 0.678694 3.21387 0.800781 3.21387H5.30176V0.724609C5.37905 0.694303 5.49322 0.65758 5.65039 0.625977C6.05689 0.54429 6.62205 0.5 7.20312 0.5ZM2.37695 3.66211C2.36576 3.66245 2.35102 3.66296 2.33398 3.66406C2.30012 3.66626 2.25446 3.67068 2.20117 3.67871C2.09677 3.69447 1.94909 3.72623 1.79492 3.7959C1.63983 3.86602 1.46217 3.98152 1.32324 4.16992C1.18017 4.36399 1.10066 4.60552 1.10059 4.88477V16.4648C1.10059 16.7442 1.18018 16.9856 1.32324 17.1797C1.46217 17.3681 1.63981 17.4836 1.79492 17.5537C1.94918 17.6234 2.09673 17.6561 2.20117 17.6719C2.25448 17.6799 2.30011 17.6843 2.33398 17.6865C2.35102 17.6876 2.36576 17.6881 2.37695 17.6885H2.40039L2.40137 17.1885C2.40137 17.6544 2.40158 17.6863 2.40137 17.6885H12.0049H12.0059H12.0293C12.0404 17.6881 12.0545 17.6876 12.0713 17.6865C12.1051 17.6843 12.1508 17.6799 12.2041 17.6719C12.3086 17.6561 12.4569 17.6235 12.6113 17.5537C12.7664 17.4836 12.9441 17.3681 13.083 17.1797C13.226 16.9856 13.3057 16.7441 13.3057 16.4648V4.88477C13.3056 4.60553 13.2261 4.36398 13.083 4.16992C12.9441 3.98147 12.7664 3.86603 12.6113 3.7959C12.4569 3.72609 12.3086 3.69446 12.2041 3.67871C12.1508 3.67069 12.1051 3.66625 12.0713 3.66406C12.0545 3.66298 12.0404 3.66245 12.0293 3.66211C12.0237 3.66194 12.0187 3.66119 12.0146 3.66113H12.0059L12.0049 4.16113C12.0049 3.67542 12.0047 3.66151 12.0049 3.66113H2.40137H2.40039H2.3916C2.38758 3.66119 2.38256 3.66194 2.37695 3.66211ZM22.4609 3.21387L20.3467 8.3125L20.0596 9.00391H23.1016L18.7139 15.9482L19.6963 11.5068L19.8311 10.8984H16.6631L18.7881 3.21387H22.4609ZM7.20508 6.10938C7.21493 6.11001 7.23237 6.11101 7.25391 6.11426C7.29942 6.12114 7.35188 6.13466 7.39746 6.15527C7.44209 6.17551 7.46446 6.19589 7.47559 6.21094C7.48251 6.22032 7.50293 6.25056 7.50293 6.33301V15.0176C7.5029 15.0994 7.4826 15.1291 7.47559 15.1387C7.46447 15.1538 7.44234 15.175 7.39746 15.1953C7.3519 15.2159 7.29941 15.2285 7.25391 15.2354C7.23237 15.2386 7.21493 15.2406 7.20508 15.2412H3.99902C3.98911 15.2406 3.97236 15.2385 3.95117 15.2354C3.90565 15.2285 3.85325 15.2159 3.80762 15.1953C3.76265 15.175 3.73965 15.1538 3.72852 15.1387C3.72132 15.1288 3.70121 15.0987 3.70117 15.0176V6.33301C3.70117 6.25104 3.72148 6.2205 3.72852 6.21094C3.73964 6.19584 3.76266 6.1756 3.80762 6.15527C3.8533 6.13462 3.90558 6.12113 3.95117 6.11426C3.97231 6.11108 3.98911 6.11003 3.99902 6.10938C4.00184 6.10919 4.00445 6.10846 4.00586 6.1084L4.00488 6.10938H7.2002L7.19824 6.1084C7.19913 6.10844 7.20045 6.1083 7.20215 6.1084L7.20312 6.10938V6.1084L7.20508 6.10938ZM5.18262 10.8994C5.17435 10.8997 5.16391 10.8996 5.15234 10.9004C5.12949 10.9019 5.09986 10.905 5.06543 10.9102C4.99847 10.9202 4.90028 10.9411 4.7959 10.9883C4.69083 11.0358 4.56329 11.1174 4.46191 11.2549C4.35638 11.3981 4.30176 11.5719 4.30176 11.7607V13.9316C4.30176 14.1205 4.35638 14.2943 4.46191 14.4375C4.56329 14.575 4.69083 14.6566 4.7959 14.7041C4.90028 14.7513 4.99847 14.7721 5.06543 14.7822C5.09986 14.7874 5.12949 14.7905 5.15234 14.792C5.16391 14.7927 5.17435 14.7927 5.18262 14.793C5.1866 14.7931 5.19018 14.7939 5.19336 14.7939H6.01074C6.01401 14.7939 6.01832 14.7931 6.02246 14.793C6.0306 14.7927 6.04046 14.7927 6.05176 14.792C6.07473 14.7905 6.10491 14.7875 6.13965 14.7822C6.20653 14.7721 6.30402 14.7512 6.4082 14.7041C6.51327 14.6566 6.64078 14.575 6.74219 14.4375C6.84781 14.2942 6.90234 14.1206 6.90234 13.9316V11.7607C6.90234 11.5718 6.84781 11.3982 6.74219 11.2549C6.64078 11.1174 6.51328 11.0358 6.4082 10.9883C6.30402 10.9412 6.20653 10.9202 6.13965 10.9102C6.10491 10.9049 6.07473 10.9019 6.05176 10.9004C6.04046 10.8997 6.0306 10.8997 6.02246 10.8994C6.01832 10.8993 6.01401 10.8985 6.01074 10.8984H5.19336C5.19018 10.8985 5.1866 10.8993 5.18262 10.8994ZM11.6514 13.207C11.691 13.3259 11.7129 13.4487 11.7129 13.5703C11.7128 13.7004 11.6879 13.83 11.6445 13.9551C11.6822 13.8297 11.705 13.7001 11.7051 13.5703C11.7051 13.4478 11.6852 13.3252 11.6514 13.207ZM10.7051 6.4707V9.08984H10.1035V6.4707H10.7051Z" fill="#1E3240" stroke="#1E3240"/>
</svg>
