<svg width="12" height="8" viewBox="0 0 12 8" fill="none" xmlns="http://www.w3.org/2000/svg">
<path d="M0 3.94762C0 4.27456 0.265699 4.5397 0.593349 4.5397H9.51143L7.2865 6.89559C7.05128 7.11543 7.04425 7.53996 7.28043 7.75898C7.52006 7.98129 7.93131 7.90187 8.14568 7.7097L11.3101 4.35485C11.4071 4.25202 11.4653 4.08889 11.4708 3.94779C11.4708 3.79031 11.4184 3.65554 11.3101 3.54073L8.14568 0.185877C7.93999 -0.0141401 7.51411 -0.0848961 7.28043 0.136597C7.04673 0.358089 7.08412 0.797636 7.2865 0.999986L9.51143 3.35559L0.592996 3.35559C0.265356 3.35559 0 3.62054 0 3.94762Z" fill="white"/>
</svg>
