<svg width="33" height="33" viewBox="0 0 33 33" fill="none" xmlns="http://www.w3.org/2000/svg">
<g clip-path="url(#clip0_33_18)">
<path d="M4.0625 10.8333V22.3437C4.0625 23.2416 4.41918 24.1027 5.05407 24.7376C5.68895 25.3725 6.55005 25.7292 7.44792 25.7292H8.88333C9.49244 25.728 10.0935 25.5898 10.642 25.325C11.1905 25.0601 11.6724 24.6753 12.0521 24.199L14.1375 21.599C14.3913 21.2826 14.7128 21.0274 15.0785 20.8519C15.4441 20.6765 15.8445 20.5854 16.25 20.5854C16.6555 20.5854 17.0559 20.6765 17.4215 20.8519C17.7872 21.0274 18.1087 21.2826 18.3625 21.599L20.4479 24.199C20.8276 24.6753 21.3095 25.0601 21.858 25.325C22.4065 25.5898 23.0076 25.728 23.6167 25.7292H25.0521C25.95 25.7292 26.811 25.3725 27.4459 24.7376C28.0808 24.1027 28.4375 23.2416 28.4375 22.3437V10.8333C28.4375 10.115 28.1522 9.42616 27.6442 8.91825C27.1363 8.41034 26.4475 8.125 25.7292 8.125H6.77083C6.05254 8.125 5.36366 8.41034 4.85575 8.91825C4.34784 9.42616 4.0625 10.115 4.0625 10.8333Z" stroke="#1E3240" stroke-width="2.70833" stroke-linecap="round" stroke-linejoin="round"/>
<path d="M9.47919 16.25C9.47919 16.6092 9.62186 16.9536 9.87581 17.2076C10.1298 17.4615 10.4742 17.6042 10.8334 17.6042C11.1925 17.6042 11.5369 17.4615 11.7909 17.2076C12.0448 16.9536 12.1875 16.6092 12.1875 16.25C12.1875 15.8909 12.0448 15.5465 11.7909 15.2925C11.5369 15.0385 11.1925 14.8959 10.8334 14.8959C10.4742 14.8959 10.1298 15.0385 9.87581 15.2925C9.62186 15.5465 9.47919 15.8909 9.47919 16.25Z" stroke="#1E3240" stroke-width="2.70833" stroke-linecap="round" stroke-linejoin="round"/>
<path d="M20.3125 16.25C20.3125 16.6092 20.4552 16.9536 20.7091 17.2076C20.9631 17.4615 21.3075 17.6042 21.6667 17.6042C22.0258 17.6042 22.3703 17.4615 22.6242 17.2076C22.8782 16.9536 23.0208 16.6092 23.0208 16.25C23.0208 15.8909 22.8782 15.5465 22.6242 15.2925C22.3703 15.0385 22.0258 14.8959 21.6667 14.8959C21.3075 14.8959 20.9631 15.0385 20.7091 15.2925C20.4552 15.5465 20.3125 15.8909 20.3125 16.25Z" stroke="#1E3240" stroke-width="2.70833" stroke-linecap="round" stroke-linejoin="round"/>
</g>
<defs>
<clipPath id="clip0_33_18">
<rect width="32.5" height="32.5" fill="white"/>
</clipPath>
</defs>
</svg>
