<svg width="25" height="22" viewBox="0 0 25 22" fill="none" xmlns="http://www.w3.org/2000/svg">
<g clip-path="url(#clip0_100_83)">
<path fill-rule="evenodd" clip-rule="evenodd" d="M12.005 5.63639L9.60585 6.9798H14.4042L12.005 5.63639ZM12.2516 3.83314C12.1779 3.79186 12.0926 3.76996 12.0055 3.76996C11.9184 3.76996 11.8331 3.79186 11.7594 3.83314L4.56098 7.86418C4.16943 8.08343 4.34396 8.62211 4.80754 8.62211H19.2025C19.666 8.62211 19.8406 8.08343 19.449 7.86418L12.2516 3.83314ZM4.15558 16.4231C4.15558 16.2053 4.25287 15.9964 4.42605 15.8424C4.59924 15.6884 4.83412 15.6019 5.07904 15.6019H18.931C19.1759 15.6019 19.4108 15.6884 19.5839 15.8424C19.7571 15.9964 19.8544 16.2053 19.8544 16.4231C19.8544 16.6409 19.7571 16.8497 19.5839 17.0037C19.4108 17.1577 19.1759 17.2442 18.931 17.2442H5.07904C4.83412 17.2442 4.59924 17.1577 4.42605 17.0037C4.25287 16.8497 4.15558 16.6409 4.15558 16.4231ZM6.46423 9.44326C6.70915 9.44326 6.94404 9.52978 7.11722 9.68377C7.2904 9.83777 7.38769 10.0466 7.38769 10.2644V14.3702C7.38769 14.588 7.2904 14.7968 7.11722 14.9508C6.94404 15.1048 6.70915 15.1913 6.46423 15.1913C6.21931 15.1913 5.98443 15.1048 5.81125 14.9508C5.63806 14.7968 5.54077 14.588 5.54077 14.3702V10.2644C5.54077 10.0466 5.63806 9.83777 5.81125 9.68377C5.98443 9.52978 6.21931 9.44326 6.46423 9.44326ZM9.23462 9.44326C9.47953 9.44326 9.71442 9.52978 9.8876 9.68377C10.0608 9.83777 10.1581 10.0466 10.1581 10.2644V14.3702C10.1581 14.588 10.0608 14.7968 9.8876 14.9508C9.71442 15.1048 9.47953 15.1913 9.23462 15.1913C8.9897 15.1913 8.75481 15.1048 8.58163 14.9508C8.40845 14.7968 8.31116 14.588 8.31116 14.3702V10.2644C8.31116 10.0466 8.40845 9.83777 8.58163 9.68377C8.75481 9.52978 8.9897 9.44326 9.23462 9.44326ZM12.005 9.44326C12.2499 9.44326 12.4848 9.52978 12.658 9.68377C12.8312 9.83777 12.9285 10.0466 12.9285 10.2644V14.3702C12.9285 14.588 12.8312 14.7968 12.658 14.9508C12.4848 15.1048 12.2499 15.1913 12.005 15.1913C11.7601 15.1913 11.5252 15.1048 11.352 14.9508C11.1788 14.7968 11.0815 14.588 11.0815 14.3702V10.2644C11.0815 10.0466 11.1788 9.83777 11.352 9.68377C11.5252 9.52978 11.7601 9.44326 12.005 9.44326ZM14.7754 9.44326C15.0203 9.44326 15.2552 9.52978 15.4284 9.68377C15.6016 9.83777 15.6988 10.0466 15.6988 10.2644V14.3702C15.6988 14.588 15.6016 14.7968 15.4284 14.9508C15.2552 15.1048 15.0203 15.1913 14.7754 15.1913C14.5305 15.1913 14.2956 15.1048 14.1224 14.9508C13.9492 14.7968 13.8519 14.588 13.8519 14.3702V10.2644C13.8519 10.0466 13.9492 9.83777 14.1224 9.68377C14.2956 9.52978 14.5305 9.44326 14.7754 9.44326ZM17.5458 9.44326C17.7907 9.44326 18.0256 9.52978 18.1988 9.68377C18.3719 9.83777 18.4692 10.0466 18.4692 10.2644V14.3702C18.4692 14.588 18.3719 14.7968 18.1988 14.9508C18.0256 15.1048 17.7907 15.1913 17.5458 15.1913C17.3009 15.1913 17.066 15.1048 16.8928 14.9508C16.7196 14.7968 16.6223 14.588 16.6223 14.3702V10.2644C16.6223 10.0466 16.7196 9.83777 16.8928 9.68377C17.066 9.52978 17.3009 9.44326 17.5458 9.44326Z" fill="#1E3240"/>
<path fill-rule="evenodd" clip-rule="evenodd" d="M12.005 19.7077C17.615 19.7077 22.1631 15.6635 22.1631 10.675C22.1631 5.68649 17.615 1.64231 12.005 1.64231C6.39497 1.64231 1.84692 5.68649 1.84692 10.675C1.84692 15.6635 6.39497 19.7077 12.005 19.7077ZM12.005 21.35C18.6355 21.35 24.01 16.5709 24.01 10.675C24.01 4.77912 18.6355 0 12.005 0C5.37455 0 0 4.77912 0 10.675C0 16.5709 5.37455 21.35 12.005 21.35Z" fill="#1E3240"/>
</g>
<defs>
<clipPath id="clip0_100_83">
<rect width="24.01" height="21.35" fill="white"/>
</clipPath>
</defs>
</svg>
