<svg width="14" height="14" viewBox="0 0 14 14" fill="none" xmlns="http://www.w3.org/2000/svg">
<g clip-path="url(#clip0_1_1840)">
<path d="M9.33333 10.4997C9.64275 10.4997 9.9395 10.6226 10.1583 10.8414C10.3771 11.0602 10.5 11.3569 10.5 11.6663C10.5 11.3569 10.6229 11.0602 10.8417 10.8414C11.0605 10.6226 11.3572 10.4997 11.6667 10.4997C11.3572 10.4997 11.0605 10.3768 10.8417 10.158C10.6229 9.93917 10.5 9.64243 10.5 9.33301C10.5 9.64243 10.3771 9.93917 10.1583 10.158C9.9395 10.3768 9.64275 10.4997 9.33333 10.4997ZM9.33333 3.49967C9.64275 3.49967 9.9395 3.62259 10.1583 3.84138C10.3771 4.06018 10.5 4.35692 10.5 4.66634C10.5 4.35692 10.6229 4.06018 10.8417 3.84138C11.0605 3.62259 11.3572 3.49967 11.6667 3.49967C11.3572 3.49967 11.0605 3.37676 10.8417 3.15797C10.6229 2.93917 10.5 2.64243 10.5 2.33301C10.5 2.64243 10.3771 2.93917 10.1583 3.15797C9.9395 3.37676 9.64275 3.49967 9.33333 3.49967ZM5.25 10.4997C5.25 9.57142 5.61875 8.68118 6.27513 8.0248C6.9315 7.36842 7.82174 6.99967 8.75 6.99967C7.82174 6.99967 6.9315 6.63093 6.27513 5.97455C5.61875 5.31817 5.25 4.42793 5.25 3.49967C5.25 4.42793 4.88125 5.31817 4.22487 5.97455C3.5685 6.63093 2.67826 6.99967 1.75 6.99967C2.67826 6.99967 3.5685 7.36842 4.22487 8.0248C4.88125 8.68118 5.25 9.57142 5.25 10.4997Z" stroke="#FAF9F8" stroke-width="1.16667" stroke-linecap="round" stroke-linejoin="round"/>
</g>
<defs>
<clipPath id="clip0_1_1840">
<rect width="14" height="14" fill="white"/>
</clipPath>
</defs>
</svg>
