<svg width="18" height="17" viewBox="0 0 18 17" fill="none" xmlns="http://www.w3.org/2000/svg">
<path d="M8.24103 0.295294C8.478 -0.0984644 9.04886 -0.0984649 9.28583 0.295294L11.8413 4.54157C11.9264 4.68303 12.0653 4.78392 12.2261 4.82117L17.0542 5.93937C17.5019 6.04306 17.6784 6.58598 17.3771 6.93303L14.1283 10.6756C14.0201 10.8003 13.9671 10.9635 13.9813 11.128L14.4098 16.0653C14.4496 16.5232 13.9877 16.8587 13.5646 16.6795L9.00127 14.7462C8.84925 14.6818 8.67761 14.6818 8.52559 14.7462L3.96229 16.6795C3.53914 16.8587 3.0773 16.5232 3.11703 16.0653L3.54553 11.128C3.55981 10.9635 3.50677 10.8003 3.39854 10.6756L0.149767 6.93303C-0.151492 6.58598 0.0249134 6.04306 0.472627 5.93937L5.30075 4.82117C5.46159 4.78392 5.60045 4.68303 5.68558 4.54157L8.24103 0.295294Z" fill="#A3A3A3"/>
</svg>
