<svg width="32" height="32" viewBox="0 0 32 32" fill="none" xmlns="http://www.w3.org/2000/svg">
<g clip-path="url(#clip0_1_1366)">
<path d="M4 8C4.32658 8.00004 4.64178 8.11994 4.88583 8.33695C5.12987 8.55397 5.28579 8.853 5.324 9.17733L5.33333 9.33333V17.3333H13.3333V10.6667C13.3334 10.3401 13.4533 10.0249 13.6703 9.78084C13.8873 9.53679 14.1863 9.38088 14.5107 9.34267L14.6667 9.33333H25.3333C26.3536 9.33328 27.3353 9.7231 28.0777 10.423C28.82 11.123 29.2668 12.0801 29.3267 13.0987L29.3333 13.3333V24C29.333 24.3398 29.2028 24.6667 28.9695 24.9138C28.7362 25.1609 28.4174 25.3096 28.0781 25.3296C27.7389 25.3495 27.4048 25.2391 27.1442 25.021C26.8836 24.8029 26.7161 24.4935 26.676 24.156L26.6667 24V20H5.33333V24C5.33295 24.3398 5.20283 24.6667 4.96953 24.9138C4.73624 25.1609 4.41739 25.3096 4.07814 25.3296C3.73888 25.3495 3.40482 25.2391 3.14422 25.021C2.88362 24.8029 2.71614 24.4935 2.676 24.156L2.66666 24V9.33333C2.66666 8.97971 2.80714 8.64057 3.05719 8.39052C3.30724 8.14048 3.64638 8 4 8Z" fill="#1E3240"/>
<path d="M9.33333 10.6667C9.85219 10.6669 10.3597 10.8184 10.7938 11.1028C11.2278 11.3871 11.5694 11.7918 11.7768 12.2675C11.9842 12.7431 12.0484 13.2688 11.9614 13.7804C11.8745 14.2919 11.6402 14.7669 11.2873 15.1473C10.9343 15.5276 10.4781 15.7967 9.97452 15.9216C9.47092 16.0466 8.94182 16.0219 8.45205 15.8505C7.96229 15.6792 7.53314 15.3688 7.2172 14.9572C6.90126 14.5456 6.71225 14.0508 6.67333 13.5334L6.66666 13.3334L6.67333 13.1334C6.72379 12.4625 7.02596 11.8355 7.51927 11.3781C8.01258 10.9206 8.66056 10.6665 9.33333 10.6667Z" fill="#1E3240"/>
</g>
<defs>
<clipPath id="clip0_1_1366">
<rect width="32" height="32" fill="white"/>
</clipPath>
</defs>
</svg>
