<svg width="18" height="18" viewBox="0 0 18 18" fill="none" xmlns="http://www.w3.org/2000/svg">
<path d="M17.6401 16.98L13.5601 12.84C14.4401 11.8 15.0101 10.62 15.2701 9.30002C15.5301 7.98002 15.4601 6.67002 15.0601 5.37002C14.6601 4.07002 13.9501 2.96002 12.9301 2.04002C11.9101 1.12002 10.7401 0.500017 9.42005 0.180017C8.10005 -0.139982 6.79005 -0.119982 5.49005 0.240019C4.19005 0.600018 3.05005 1.27002 2.07005 2.25002C1.09005 3.23002 0.420052 4.37002 0.0600523 5.67002C-0.299948 6.97002 -0.319948 8.28002 5.22733e-05 9.60002C0.320052 10.92 0.940052 12.09 1.86005 13.11C2.78005 14.13 3.89005 14.84 5.19005 15.24C6.49005 15.64 7.80005 15.71 9.12005 15.45C10.4401 15.19 11.6401 14.62 12.7201 13.74L16.8001 17.82C16.9201 17.94 17.0601 17.99 17.2201 17.97C17.3801 17.95 17.5101 17.89 17.6101 17.79C17.7101 17.69 17.7701 17.56 17.7901 17.4C17.8101 17.24 17.7601 17.1 17.6401 16.98ZM1.02005 7.80002C1.02005 6.60002 1.32005 5.50002 1.92005 4.50002C2.52005 3.50002 3.32005 2.70002 4.32005 2.10002C5.32005 1.50002 6.42005 1.20002 7.62005 1.20002C8.82005 1.20002 9.92005 1.50002 10.9201 2.10002C11.9201 2.70002 12.7201 3.50002 13.3201 4.50002C13.9201 5.50002 14.2201 6.60002 14.2201 7.80002C14.2201 9.00002 13.9201 10.1 13.3201 11.1C12.7201 12.1 11.9201 12.9 10.9201 13.5C9.92005 14.1 8.82005 14.4 7.62005 14.4C6.42005 14.4 5.32005 14.1 4.32005 13.5C3.32005 12.9 2.52005 12.1 1.92005 11.1C1.32005 10.1 1.02005 9.00002 1.02005 7.80002Z" fill="white"/>
</svg>
