<svg width="11" height="9" viewBox="0 0 11 9" fill="none" xmlns="http://www.w3.org/2000/svg">
<path d="M9.41311 2.1123C9.41311 2.21484 9.41311 2.29688 9.41311 2.39941C9.41311 5.25 7.25979 8.51074 3.30178 8.51074C2.07131 8.51074 0.943383 8.16211 2.38419e-05 7.54688C0.164086 7.56738 0.328149 7.58789 0.512719 7.58789C1.5176 7.58789 2.44045 7.23926 3.17873 6.66504C2.23538 6.64453 1.43557 6.0293 1.16897 5.16797C1.31252 5.18848 1.43557 5.20898 1.57913 5.20898C1.7637 5.20898 1.96877 5.16797 2.13284 5.12695C1.14846 4.92188 0.41018 4.06055 0.41018 3.01465V2.99414C0.697289 3.1582 1.04592 3.24023 1.39456 3.26074C0.799829 2.87109 0.430688 2.21484 0.430688 1.47656C0.430688 1.06641 0.533227 0.697266 0.717797 0.389648C1.7842 1.68164 3.38381 2.54297 5.16799 2.64551C5.12698 2.48145 5.10647 2.31738 5.10647 2.15332C5.10647 0.963867 6.07034 0 7.25979 0C7.87502 0 8.42873 0.246094 8.83889 0.676758C9.31057 0.574219 9.78225 0.389648 10.1924 0.143555C10.0283 0.65625 9.70022 1.06641 9.24905 1.33301C9.67971 1.29199 10.1104 1.16895 10.4795 1.00488C10.1924 1.43555 9.82327 1.80469 9.41311 2.1123Z" fill="white"/>
</svg>
