<svg width="38" height="38" viewBox="0 0 38 38" fill="none" xmlns="http://www.w3.org/2000/svg">
<path d="M18.6896 17.9112C17.6569 17.9112 16.6665 17.501 15.9363 16.7708C15.2061 16.0406 14.7959 15.0502 14.7959 14.0175C14.7959 12.9848 15.2061 11.9944 15.9363 11.2642C16.6665 10.534 17.6569 10.1237 18.6896 10.1237C19.7223 10.1237 20.7127 10.534 21.4429 11.2642C22.1731 11.9944 22.5834 12.9848 22.5834 14.0175C22.5834 14.5288 22.4826 15.0352 22.287 15.5076C22.0913 15.98 21.8045 16.4092 21.4429 16.7708C21.0813 17.1324 20.6521 17.4192 20.1797 17.6148C19.7073 17.8105 19.2009 17.9112 18.6896 17.9112ZM18.6896 3.11499C15.7981 3.11499 13.025 4.26364 10.9804 6.30826C8.93576 8.35287 7.78711 11.126 7.78711 14.0175C7.78711 22.1944 18.6896 34.265 18.6896 34.265C18.6896 34.265 29.5921 22.1944 29.5921 14.0175C29.5921 11.126 28.4435 8.35287 26.3988 6.30826C24.3542 4.26364 21.5811 3.11499 18.6896 3.11499Z" fill="#1E3240"/>
</svg>
