<svg width="38" height="38" viewBox="0 0 38 38" fill="none" xmlns="http://www.w3.org/2000/svg">
<path d="M6.23023 31.15C5.37361 31.15 4.64055 30.8452 4.03104 30.2357C3.42154 29.6262 3.11627 28.8926 3.11523 28.035V9.34498C3.11523 8.48836 3.4205 7.75529 4.03104 7.14579C4.64158 6.53629 5.37465 6.23102 6.23023 6.22998H31.1502C32.0069 6.22998 32.7404 6.53525 33.351 7.14579C33.9615 7.75633 34.2663 8.48939 34.2652 9.34498V28.035C34.2652 28.8916 33.9605 29.6252 33.351 30.2357C32.7415 30.8463 32.0079 31.151 31.1502 31.15H6.23023ZM18.6902 20.2475L31.1502 12.46V9.34498L18.6902 17.1325L6.23023 9.34498V12.46L18.6902 20.2475Z" fill="#1E3240"/>
</svg>
