<svg width="38" height="38" viewBox="0 0 38 38" fill="none" xmlns="http://www.w3.org/2000/svg">
<path d="M31.3961 33.0312C28.1517 33.0312 24.9463 32.3242 21.7798 30.9102C18.6133 29.4962 15.7323 27.4909 13.1368 24.8944C10.5414 22.2979 8.53661 19.4169 7.12259 16.2514C5.70857 13.086 5.00104 9.88055 5 6.63516C5 6.16797 5.15573 5.77865 5.46719 5.46719C5.77865 5.15573 6.16797 5 6.63516 5H12.9422C13.3056 5 13.63 5.12354 13.9155 5.37064C14.201 5.61773 14.3697 5.90946 14.4216 6.24583L15.4339 11.6964C15.4858 12.1116 15.4728 12.462 15.3949 12.7475C15.3171 13.033 15.1743 13.2796 14.9667 13.4872L11.1902 17.3026C11.7093 18.2629 12.3255 19.1906 13.0387 20.0855C13.752 20.9804 14.5374 21.8437 15.3949 22.6753C16.1995 23.4799 17.0431 24.2263 17.9255 24.9146C18.808 25.603 19.7424 26.2321 20.7286 26.8021L24.3883 23.1424C24.6219 22.9089 24.9271 22.7339 25.304 22.6176C25.6808 22.5014 26.0504 22.4687 26.4128 22.5195L31.7854 23.6096C32.1488 23.7135 32.4473 23.9019 32.6809 24.1749C32.9145 24.448 33.0312 24.7527 33.0312 25.0891V31.3961C33.0312 31.8633 32.8755 32.2526 32.5641 32.5641C32.2526 32.8755 31.8633 33.0312 31.3961 33.0312Z" fill="#1E3240"/>
</svg>
