<svg width="18" height="18" viewBox="0 0 18 18" fill="none" xmlns="http://www.w3.org/2000/svg">
<path d="M1.25 4.25H16.75V13.75H1.25V4.25Z" fill="#1E50A0"/>
<path d="M10 7.214V8H12.5452L16.75 5.42275V4.25H14.8365L10 7.214Z" fill="white"/>
<path d="M16.75 4.25H15.7933L10 7.80075V8H10.8705L16.75 4.3965V4.25Z" fill="#D22F27"/>
<path d="M14.8368 13.75H16.75V12.577L12.5455 10H10V10.7858L14.8368 13.75Z" fill="white"/>
<path d="M16.7496 13.75V13.1632L11.5884 10H10.3916L16.5101 13.75H16.7496Z" fill="#D22F27"/>
<path d="M8 10.786V10H5.45475L1.25 12.5772V13.75H3.1635L8 10.786Z" fill="white"/>
<path d="M1.25 13.75H2.20675L8 10.1993V10H7.1295L1.25 13.6035V13.75Z" fill="#D22F27"/>
<path d="M3.16325 4.25H1.25V5.423L5.4545 8H8V7.21425L3.16325 4.25Z" fill="white"/>
<path d="M1.25 4.25V4.83675L6.4115 8H7.608L1.4895 4.25H1.25Z" fill="#D22F27"/>
<path d="M1.25 7.75H16.75V10.25H1.25V7.75Z" fill="white"/>
<path d="M7.75 4.25H10.25V13.75H7.75V4.25Z" fill="white"/>
<path d="M1.25 8.25H16.75V9.75H1.25V8.25Z" fill="#D22F27"/>
<path d="M8.25 4.25H9.75V13.75H8.25V4.25Z" fill="#D22F27"/>
</svg>
