<svg width="50" height="50" viewBox="0 0 50 50" fill="none" xmlns="http://www.w3.org/2000/svg">
<path d="M42.1874 20.313C42.1954 17.3328 41.4284 14.4018 39.9617 11.8076C38.4949 9.21343 36.3789 7.04517 33.8212 5.51567C31.2635 3.98617 28.352 3.14799 25.3726 3.08339C22.3931 3.01879 19.4481 3.72999 16.8265 5.14719C14.2049 6.5644 11.9968 8.6389 10.419 11.1671C8.84123 13.6953 7.9479 16.5903 7.82672 19.568C7.70554 22.5456 8.36068 25.5037 9.72783 28.1517C11.095 30.7997 13.1272 33.0468 15.6249 34.6723V45.313C15.6265 45.5438 15.6791 45.7713 15.7791 45.9794C15.879 46.1874 16.0238 46.3707 16.2031 46.5161C16.3815 46.6634 16.5903 46.7692 16.8146 46.826C17.0389 46.8827 17.273 46.8889 17.4999 46.8442L24.9999 45.313L32.4999 46.8755H32.8124C33.2268 46.8755 33.6243 46.7109 33.9173 46.4178C34.2103 46.1248 34.3749 45.7274 34.3749 45.313V34.7036C36.7714 33.144 38.7409 31.0112 40.105 28.4984C41.4692 25.9856 42.185 23.1722 42.1874 20.313V20.313ZM31.2499 43.4067L26.5624 42.4692V37.4223C28.1696 37.2765 29.7479 36.903 31.2499 36.313V43.4067ZM24.9999 34.3755C24.5855 34.3755 24.1881 34.5401 23.8951 34.8331C23.6021 35.1261 23.4374 35.5236 23.4374 35.938V42.4692L18.7499 43.4067V33.8442C18.7539 33.7818 18.7539 33.7192 18.7499 33.6567C18.7604 33.5528 18.7604 33.4481 18.7499 33.3442C18.6758 33.1592 18.5759 32.9856 18.4531 32.8286C18.3777 32.747 18.2939 32.6737 18.2031 32.6098C18.1589 32.5652 18.1119 32.5235 18.0624 32.4848C15.1061 30.7741 12.8735 28.0458 11.7814 24.8095C10.6894 21.5731 10.8125 18.0499 12.1279 14.8977C13.4433 11.7456 15.861 9.17987 18.9296 7.67974C21.9982 6.17961 25.5079 5.84759 28.8033 6.74567C32.0988 7.64376 34.9547 9.71055 36.8379 12.5601C38.7211 15.4097 39.5027 18.8473 39.0369 22.2311C38.5712 25.6148 36.8898 28.7133 34.3067 30.9481C31.7236 33.1829 28.4155 34.4012 24.9999 34.3755V34.3755Z" fill="#1E3240"/>
<path d="M33.6247 16.0474L28.9372 14.7506L26.2966 10.7193C26.1537 10.5066 25.9606 10.3323 25.7345 10.2118C25.5083 10.0913 25.256 10.0283 24.9997 10.0283C24.7435 10.0283 24.4912 10.0913 24.265 10.2118C24.0388 10.3323 23.8458 10.5066 23.7029 10.7193L21.0154 14.7349L16.3279 16.0318C16.0865 16.1125 15.8685 16.2509 15.6928 16.435C15.5172 16.6191 15.3891 16.8433 15.3198 17.0882C15.2505 17.3331 15.2421 17.5911 15.2952 17.84C15.3483 18.0889 15.4615 18.321 15.6247 18.5162L18.6247 22.2974L18.4216 27.1256C18.4049 27.3861 18.4537 27.6467 18.5636 27.8835C18.6736 28.1203 18.8411 28.3258 19.0509 28.4812C19.2606 28.6366 19.506 28.7369 19.7646 28.773C20.0231 28.8092 20.2866 28.78 20.531 28.6881L24.9997 26.9849L29.531 28.6568C29.7753 28.7487 30.0388 28.7779 30.2974 28.7418C30.5559 28.7057 30.8013 28.6053 31.0111 28.4499C31.2209 28.2945 31.3884 28.089 31.4983 27.8522C31.6082 27.6154 31.6571 27.3548 31.6404 27.0943L31.4372 22.2662L34.3747 18.5162C34.5333 18.3148 34.6399 18.0775 34.6852 17.8252C34.7304 17.5729 34.7129 17.3134 34.6342 17.0695C34.5554 16.8255 34.4179 16.6047 34.2337 16.4265C34.0495 16.2483 33.8242 16.1181 33.5779 16.0474H33.6247ZM28.6247 20.8287C28.396 21.1224 28.2796 21.4881 28.2966 21.8599L28.4216 24.9849L25.5466 23.9224C25.1939 23.7907 24.8055 23.7907 24.4529 23.9224L21.5779 24.9849L21.7029 21.8599C21.7198 21.4881 21.6035 21.1224 21.3747 20.8287L19.4685 18.4224L22.4216 17.5943C22.7804 17.4921 23.0908 17.2648 23.2966 16.9537L24.9997 14.4068L26.7029 16.9537C26.9087 17.2648 27.2191 17.4921 27.5779 17.5943L30.531 18.4224L28.6247 20.8287Z" fill="#1E3240"/>
</svg>
