<svg width="50" height="50" viewBox="0 0 50 50" fill="none" xmlns="http://www.w3.org/2000/svg">
<path d="M25 30.9805C22.1143 30.9805 19.3994 29.8574 17.3584 27.8164C15.3174 25.7754 14.1943 23.0606 14.1943 20.1748C14.1943 17.2891 15.3174 14.5742 17.3584 12.5332C19.3994 10.4922 22.1143 9.36914 25 9.36914C27.8857 9.36914 30.6006 10.4922 32.6416 12.5332C34.6826 14.5742 35.8057 17.2891 35.8057 20.1748C35.8057 23.0606 34.6826 25.7754 32.6416 27.8164C30.6006 29.8574 27.8857 30.9805 25 30.9805ZM25 11.8105C20.3857 11.8105 16.6357 15.5654 16.6357 20.1748C16.6357 24.7891 20.3906 28.5391 25 28.5391C29.6094 28.5391 33.3643 24.7842 33.3643 20.1748C33.3643 15.5606 29.6143 11.8105 25 11.8105Z" fill="#1E3240"/>
<path d="M23.4766 24.98L19.502 21.0054L21.2305 19.2817L23.4766 21.5278L28.7695 16.2349L30.4981 17.9585L23.4766 24.98Z" fill="#1E3240"/>
<path d="M25 38.5303C24.2236 38.5303 23.4424 38.3398 22.7344 37.9639C22.5879 37.8857 22.4463 37.7978 22.3096 37.71C22.0557 37.5391 21.8164 37.3437 21.6016 37.124L19.7363 35.2539C19.2871 34.8047 18.6963 34.5605 18.0615 34.5605H15.4248C12.7734 34.5605 10.6152 32.4023 10.6152 29.751V27.1143C10.6152 26.4893 10.3613 25.8838 9.92188 25.4395L8.05664 23.5742C6.18164 21.6992 6.18164 18.6475 8.05664 16.7725L9.92188 14.9072C10.3613 14.4678 10.6152 13.8574 10.6152 13.2324V10.5957C10.6152 7.94434 12.7734 5.78613 15.4248 5.78613H18.0615C18.6914 5.78613 19.2871 5.54199 19.7363 5.09277L21.6016 3.22754C23.4766 1.35254 26.5283 1.35254 28.3984 3.22754L30.2637 5.09277C30.7129 5.54199 31.3037 5.78613 31.9385 5.78613H34.5752C37.2266 5.78613 39.3848 7.94434 39.3848 10.5957V13.2324C39.3848 13.8623 39.6289 14.458 40.0781 14.9072L41.9434 16.7725C43.8184 18.6475 43.8184 21.6992 41.9434 23.5742L40.0781 25.4395C39.6289 25.8838 39.3848 26.4795 39.3848 27.1143V29.751C39.3848 32.4023 37.2266 34.5605 34.5752 34.5605H31.9385C31.3037 34.5605 30.7129 34.8047 30.2637 35.2539L28.3984 37.1191C28.1787 37.3389 27.9395 37.5342 27.6855 37.7051C27.5537 37.793 27.4072 37.8809 27.2607 37.959C26.5576 38.3398 25.7764 38.5303 25 38.5303ZM15.4199 8.23242C14.1162 8.23242 13.0518 9.29199 13.0518 10.6006V13.2373C13.0518 14.5215 12.5537 15.7275 11.6455 16.6357L9.78027 18.501C8.85742 19.4238 8.85742 20.9229 9.78027 21.8457L11.6455 23.7109C12.5537 24.6191 13.0518 25.8252 13.0518 27.1094V29.7461C13.0518 31.0498 14.1113 32.1143 15.4199 32.1143H18.0566C19.3408 32.1143 20.5469 32.6123 21.4551 33.5205L23.3203 35.3857C23.4277 35.4932 23.5449 35.5908 23.6719 35.6787C23.7402 35.7227 23.8037 35.7666 23.877 35.8008C24.5752 36.1768 25.4102 36.1768 26.1084 35.8008C26.1816 35.7617 26.25 35.7227 26.3135 35.6787C26.4404 35.5908 26.5625 35.4932 26.6699 35.3857L28.5352 33.5205C29.4434 32.6123 30.6494 32.1143 31.9336 32.1143H34.5703C35.874 32.1143 36.9385 31.0547 36.9385 29.7461V27.1094C36.9385 25.8252 37.4365 24.6191 38.3447 23.7109L40.21 21.8457C41.1328 20.9229 41.1328 19.4238 40.21 18.4961L38.3447 16.6309C37.4365 15.7227 36.9385 14.5166 36.9385 13.2324V10.5957C36.9385 9.29199 35.8789 8.22754 34.5703 8.22754H31.9336C30.6494 8.22754 29.4434 7.72949 28.5352 6.81641L26.6699 4.95117C26.2207 4.50195 25.6299 4.25781 24.9951 4.25781C24.3652 4.25781 23.7695 4.50195 23.3203 4.95117L21.4551 6.81641C20.5469 7.72461 19.3408 8.22266 18.0566 8.22266H15.4199V8.23242Z" fill="#1E3240"/>
<path d="M19.8633 48.1885L16.1377 43.6084L10.3027 44.4922L15.0879 32.1191H18.0615C19.3457 32.1191 20.5518 32.6172 21.46 33.5254L23.3252 35.3906C23.4326 35.498 23.5498 35.5957 23.6768 35.6836L24.4824 36.2256L19.8633 48.1885ZM17.1533 40.9863L19.1016 43.3838L21.543 37.0654L19.7363 35.2539C19.2871 34.8047 18.6963 34.5605 18.0615 34.5605H16.7627L14.1016 41.4453L17.1533 40.9863ZM30.1367 48.1836L25.5127 36.2305L26.3184 35.6885C26.4453 35.6055 26.5625 35.5078 26.6699 35.3955L28.5352 33.5303C29.4434 32.6221 30.6494 32.124 31.9336 32.124H34.9121L39.6924 44.4971L33.8574 43.6133L30.1367 48.1836ZM28.457 37.0654L30.8984 43.3838L32.8467 40.9863L35.8984 41.4502L33.2373 34.5654H31.9385C31.3037 34.5654 30.7129 34.8096 30.2637 35.2588L28.457 37.0654Z" fill="#1E3240"/>
</svg>
