<svg width="50" height="50" viewBox="0 0 50 50" fill="none" xmlns="http://www.w3.org/2000/svg">
<g clip-path="url(#clip0_115_1831)">
<path fill-rule="evenodd" clip-rule="evenodd" d="M17.1875 32.8127C17.1875 32.1611 16.7828 31.5783 16.1734 31.3502L3.67343 26.6626C3.19374 26.483 2.65625 26.5486 2.23437 26.8408C1.81406 27.133 1.5625 27.6127 1.5625 28.1252V43.7504C1.5625 44.4019 1.96719 44.9847 2.57656 45.2129L15.0765 49.9004C15.5562 50.0801 16.0937 50.0145 16.5156 49.7223C16.9359 49.4301 17.1875 48.9504 17.1875 48.4379V32.8127ZM4.68749 42.6675L14.0625 46.1832V33.8955L4.68749 30.3799V42.6675Z" fill="#1E3240"/>
<path fill-rule="evenodd" clip-rule="evenodd" d="M15.0766 31.3502C14.4672 31.5783 14.0625 32.1611 14.0625 32.8127V48.4379C14.0625 48.9504 14.3141 49.4301 14.7344 49.7223C15.1563 50.0145 15.6938 50.0801 16.1735 49.9004L28.6734 45.2129C29.2828 44.9847 29.6875 44.4019 29.6875 43.7504V28.1252C29.6875 27.6127 29.4359 27.133 29.0156 26.8408C28.5938 26.5486 28.0563 26.483 27.5766 26.6626L15.0766 31.3502ZM17.1875 33.8955V46.1832L26.5625 42.6675V30.3799L17.1875 33.8955Z" fill="#1E3240"/>
<path fill-rule="evenodd" clip-rule="evenodd" d="M2.57661 26.6627C1.96724 26.8908 1.56255 27.4736 1.56255 28.1252C1.56255 28.7767 1.96724 29.3596 2.57661 29.5877L15.0766 34.2752C15.4297 34.4081 15.8203 34.4081 16.1735 34.2752L28.6734 29.5877C29.2828 29.3596 29.6875 28.7767 29.6875 28.1252C29.6875 27.4736 29.2828 26.8908 28.6734 26.6627L16.1735 21.9751C15.8203 21.8423 15.4297 21.8423 15.0766 21.9751L2.57661 26.6627ZM7.57504 28.1252L15.625 31.144L23.675 28.1252L15.625 25.1064L7.57504 28.1252Z" fill="#1E3240"/>
<path fill-rule="evenodd" clip-rule="evenodd" d="M32.9333 7.81403C35.4646 7.87861 37.5 9.95364 37.5 12.5005C37.5 13.3631 36.8 14.0631 35.9375 14.0631C35.1021 14.0631 34.4187 13.4058 34.3771 12.5808L34.3729 12.4203C34.3312 11.5953 33.6479 10.938 32.8125 10.938C31.95 10.938 31.25 11.638 31.25 12.5005C31.25 13.3631 31.95 14.0631 32.8125 14.0631C33.675 14.0631 34.375 14.7631 34.375 15.6256C34.375 16.4881 33.675 17.1881 32.8125 17.1881C30.225 17.1881 28.125 15.0881 28.125 12.5005C28.125 9.91301 30.225 7.81299 32.8125 7.81299L32.9333 7.81403Z" fill="#1E3240"/>
<path fill-rule="evenodd" clip-rule="evenodd" d="M32.8125 17.1879C33.675 17.1879 34.375 17.8879 34.375 18.7504C34.375 19.6129 33.675 20.3129 32.8125 20.3129C31.95 20.3129 31.25 19.6129 31.25 18.7504C31.25 17.8879 30.55 17.1879 29.6875 17.1879C28.825 17.1879 28.125 17.8879 28.125 18.7504C28.125 21.338 30.225 23.438 32.8125 23.438C35.4 23.438 37.5 21.338 37.5 18.7504C37.5 16.1629 35.4 14.0629 32.8125 14.0629C31.95 14.0629 31.25 14.7629 31.25 15.6254C31.25 16.4879 31.95 17.1879 32.8125 17.1879Z" fill="#1E3240"/>
<path fill-rule="evenodd" clip-rule="evenodd" d="M31.25 7.03176V9.37554C31.25 10.238 31.95 10.9381 32.8125 10.9381C33.675 10.9381 34.375 10.238 34.375 9.37554V7.03176C34.375 6.16925 33.675 5.46924 32.8125 5.46924C31.95 5.46924 31.25 6.16925 31.25 7.03176Z" fill="#1E3240"/>
<path fill-rule="evenodd" clip-rule="evenodd" d="M31.25 21.8755V24.2193C31.25 25.0818 31.95 25.7818 32.8125 25.7818C33.675 25.7818 34.375 25.0818 34.375 24.2193V21.8755C34.375 21.013 33.675 20.313 32.8125 20.313C31.95 20.313 31.25 21.013 31.25 21.8755Z" fill="#1E3240"/>
<path fill-rule="evenodd" clip-rule="evenodd" d="M25.6187 28.8555L23.4453 28.0399C23.289 27.9805 23.1422 27.8977 23.0125 27.793C19.4609 24.9274 17.1875 20.5398 17.1875 15.6257C17.1875 7.00214 24.1891 0.000488281 32.8125 0.000488281C41.4359 0.000488281 48.4374 7.00214 48.4374 15.6257C48.4374 24.2492 41.4359 31.2509 32.8125 31.2509C30.9859 31.2509 29.2328 30.9368 27.6031 30.3602C27.4109 30.2915 27.2375 30.1884 27.0906 30.0571C26.4765 30.0384 25.9062 29.6555 25.6765 29.0446C25.6531 28.9821 25.6344 28.918 25.6187 28.8555ZM29.6328 27.7165C30.6484 27.9836 31.714 28.1258 32.8125 28.1258C39.7109 28.1258 45.3125 22.5242 45.3125 15.6257C45.3125 8.72716 39.7109 3.12553 32.8125 3.12553C25.914 3.12553 20.3125 8.72716 20.3125 15.6257C20.3125 19.471 22.0531 22.9133 24.7875 25.2055L28.6734 26.6633L28.7297 26.6852L28.7859 26.7102L28.8062 26.7211L28.8515 26.743L28.875 26.7555L28.8922 26.7649L28.9109 26.7758L28.9344 26.7899L28.9703 26.8133L28.9937 26.8274L29.0047 26.8352L29.0156 26.8414L29.0906 26.8977C29.1187 26.9196 29.1469 26.943 29.1719 26.9665L29.1797 26.9727L29.1969 26.9899L29.2328 27.0243L29.25 27.0414L29.2625 27.054L29.2765 27.0696L29.2984 27.093L29.3234 27.1258L29.339 27.143L29.3469 27.1524L29.3578 27.1649L29.4109 27.2383C29.4312 27.268 29.45 27.2977 29.4687 27.3274L29.4719 27.3336L29.4828 27.3539L29.5094 27.4008L29.5187 27.4211L29.5281 27.4368L29.5359 27.4571L29.55 27.4852L29.5656 27.5211L29.575 27.5446L29.5797 27.5571L29.5859 27.5711L29.6078 27.6368L29.614 27.654L29.6156 27.6602L29.6328 27.7165Z" fill="#1E3240"/>
</g>
<defs>
<clipPath id="clip0_115_1831">
<rect width="50" height="50" fill="white"/>
</clipPath>
</defs>
</svg>
