<svg width="50" height="50" viewBox="0 0 50 50" fill="none" xmlns="http://www.w3.org/2000/svg">
<g clip-path="url(#clip0_115_1823)">
<path d="M13.542 39.584H5.72949C4.86699 39.584 4.16699 38.884 4.16699 38.0215C4.16699 37.159 4.86699 36.459 5.72949 36.459H13.542C14.4045 36.459 15.1045 37.159 15.1045 38.0215C15.1045 38.884 14.4045 39.584 13.542 39.584ZM29.167 39.584H21.8753C21.0128 39.584 20.3128 38.884 20.3128 38.0215C20.3128 37.159 21.0128 36.459 21.8753 36.459H27.9045L31.9232 17.709H9.89616C9.03366 17.709 8.33366 17.009 8.33366 16.1465C8.33366 15.284 9.03366 14.584 9.89616 14.584H33.8545C34.3274 14.584 34.7732 14.7986 35.0691 15.1632C35.367 15.5319 35.4816 16.0111 35.3816 16.4736L30.6941 38.3486C30.5399 39.0694 29.9045 39.584 29.167 39.584V39.584Z" fill="#1E3240"/>
<path d="M46.8753 39.584H44.7919C43.9294 39.584 43.2294 38.884 43.2294 38.0215C43.2294 37.159 43.9294 36.459 44.7919 36.459H45.6128L46.8732 30.5736C46.7899 26.9111 43.7857 23.959 40.1044 23.959H33.7773L31.0982 36.459H36.4586C37.3211 36.459 38.0211 37.159 38.0211 38.0215C38.0211 38.884 37.3211 39.584 36.4586 39.584H29.1669C28.694 39.584 28.2482 39.3694 27.9523 39.0048C27.6544 38.6361 27.5398 38.1569 27.6398 37.6944L30.9878 22.0694C31.1419 21.3486 31.7774 20.834 32.5149 20.834H40.1044C45.5607 20.834 50.0003 25.2736 50.0003 30.7298C50.0003 30.8402 49.9899 30.9486 49.9649 31.0569L48.4024 38.3486C48.2482 39.0694 47.6128 39.584 46.8753 39.584Z" fill="#1E3240"/>
<path d="M40.625 43.7502C37.7542 43.7502 35.4167 41.4148 35.4167 38.5419C35.4167 35.669 37.7542 33.3336 40.625 33.3336C43.4958 33.3336 45.8333 35.669 45.8333 38.5419C45.8333 41.4148 43.4958 43.7502 40.625 43.7502ZM40.625 36.4586C39.4771 36.4586 38.5417 37.3919 38.5417 38.5419C38.5417 39.6919 39.4771 40.6252 40.625 40.6252C41.7729 40.6252 42.7083 39.6919 42.7083 38.5419C42.7083 37.3919 41.7729 36.4586 40.625 36.4586ZM17.7083 43.7502C14.8375 43.7502 12.5 41.4148 12.5 38.5419C12.5 35.669 14.8375 33.3336 17.7083 33.3336C20.5792 33.3336 22.9167 35.669 22.9167 38.5419C22.9167 41.4148 20.5792 43.7502 17.7083 43.7502ZM17.7083 36.4586C16.5604 36.4586 15.625 37.3919 15.625 38.5419C15.625 39.6919 16.5604 40.6252 17.7083 40.6252C18.8562 40.6252 19.7917 39.6919 19.7917 38.5419C19.7917 37.3919 18.8562 36.4586 17.7083 36.4586ZM13.0208 21.8752H5.72917C4.86667 21.8752 4.16667 21.1752 4.16667 20.3127C4.16667 19.4502 4.86667 18.7502 5.72917 18.7502H13.0208C13.8833 18.7502 14.5833 19.4502 14.5833 20.3127C14.5833 21.1752 13.8833 21.8752 13.0208 21.8752ZM13.0208 28.1252H3.64583C2.78333 28.1252 2.08333 27.4252 2.08333 26.5627C2.08333 25.7002 2.78333 25.0002 3.64583 25.0002H13.0208C13.8833 25.0002 14.5833 25.7002 14.5833 26.5627C14.5833 27.4252 13.8833 28.1252 13.0208 28.1252ZM13.0208 34.3752H1.5625C0.7 34.3752 0 33.6752 0 32.8127C0 31.9502 0.7 31.2502 1.5625 31.2502H13.0208C13.8833 31.2502 14.5833 31.9502 14.5833 32.8127C14.5833 33.6752 13.8833 34.3752 13.0208 34.3752Z" fill="#1E3240"/>
</g>
<defs>
<clipPath id="clip0_115_1823">
<rect width="50" height="50" fill="white"/>
</clipPath>
</defs>
</svg>
